{"title":"Scooby-Doo! Mystery Incorporated Complete Season 1 1080P WEB-DL ","magnet":"magnet:?xt=urn:btih:1637e92a4c67ce248687eaa76a9b724f23cadbb0&dn=Scooby-Doo%21+Mystery+Incorporated+Complete+Season+1+1080P+WEB-DL+&tr=udp%3A%2F%2Ftracker.leechers-paradise.org%3A6969&tr=udp%3A%2F%2Fzer0day.ch%3A1337&tr=udp%3A%2F%2Fopen.demonii.com%3A1337&tr=udp%3A%2F%2Ftracker.coppersurfer.tk%3A6969&tr=udp%3A%2F%2Fexodus.desync.com%3A6969","uploader":"jmanwf","categoryP":"video","categoryS":"hd___tv_shows","size":"22446404891","seeders":"2","leechers":"14","description":"\r\nScooby-Doo and the gang attempt to solve creepy mysteries in the town of Crystal Cove, a place with a history of eerie supernatural events.\r\n\r\n\r\nVideo\r\nID                                       : 2\r\nFormat                                   : AVC\r\nFormat/Info                              : Advanced Video Codec\r\nFormat profile                           : <a class=\"__cf_email__\" href=\"/cdn-cgi/l/email-protection\" data-cfemail=\"367e5f515e767a02\">[email&#xA0;protected]</a><script data-cfhash=\"f9e31\" type=\"text/javascript\">/* <![CDATA[ */!function(t,e,r,n,c,a,p){try{t=document.currentScript||function(){for(t=document.getElementsByTagName('script'),e=t.length;e--;)if(t[e].getAttribute('data-cfhash'))return t[e]}();if(t&&(c=t.previousSibling)){p=t.parentNode;if(a=c.getAttribute('data-cfemail')){for(e='',r='0x'+a.substr(0,2)|0,n=2;a.length-n;n+=2)e+='%'+('0'+('0x'+a.substr(n,2)^r).toString(16)).slice(-2);p.replaceChild(document.createTextNode(decodeURIComponent(e)),c)}p.removeChild(t)}}catch(u){}}()/* ]]> */</script>\r\nFormat settings, CABAC                   : Yes\r\nFormat settings, ReFrames                : 4 frames\r\nCodec ID                                 : avc1\r\nCodec ID/Info                            : Advanced Video Coding\r\nDuration                                 : 23 min 10 s\r\nBit rate                                 : 5 135 kb/s\r\nWidth                                    : 1 920 pixels\r\nHeight                                   : 1 080 pixels\r\nDisplay aspect ratio                     : 16:9\r\nFrame rate mode                          : Variable\r\nFrame rate                               : 23.976 FPS\r\nMinimum frame rate                       : 23.976 FPS\r\nMaximum frame rate                       : 24.366 FPS\r\nColor space                              : YUV\r\nChroma subsampling                       : 4:2:0\r\nBit depth                                : 8 bits\r\nScan type                                : Progressive\r\nBits/(Pixel*Frame)                       : 0.103\r\nStream size                              : 851 MiB (98%)\r\nLanguage                                 : English\r\nEncoded date                             : UTC 2016-09-05 05:27:56\r\nTagged date                              : UTC 2016-09-05 05:28:49\r\nColor range                              : Limited\r\nColor primaries                          : BT.709\r\nTransfer characteristics                 : BT.709\r\nMatrix coefficients                      : BT.709\r\n\r\nAudio\r\nID                                       : 1\r\nFormat                                   : AAC\r\nFormat/Info                              : Advanced Audio Codec\r\nFormat profile                           : LC\r\nCodec ID                                 : 40\r\nDuration                                 : 23 min 10 s\r\nDuration_LastFrame                       : -3 ms\r\nBit rate mode                            : Variable\r\nBit rate                                 : 126 kb/s\r\nMaximum bit rate                         : 203 kb/s\r\nChannel(s)                               : 2 channels\r\nChannel positions                        : Front: L R\r\nSampling rate                            : 48.0 kHz\r\nFrame rate                               : 46.875 FPS (1024 spf)\r\nCompression mode                         : Lossy\r\nStream size                              : 20.8 MiB (2%)\r\nLanguage                                 : English\r\nDefault                                  : Yes\r\nAlternate group                          : 1\r\nEncoded date                             : UTC 2016-09-05 05:26:04\r\nTagged date                              : UTC 2016-09-05 05:27:56\r\n\r\n\r\n\r\n <a href=\"\nhttp://www.imdb.com/title/tt1660055/\" rel=\"nofollow\" target=\"_NEW\">\nhttp://www.imdb.com/title/tt1660055/</a>\r\n\r\n\r\n\r\n <a href=\"\nhttps://itunes.apple.com/us/tv-season/scooby-doo-mystery-incorporated-season-1/id380314616\" rel=\"nofollow\" target=\"_NEW\">\nhttps://itunes.apple.com/us/tv-season/scooby-doo-mystery-incorporated-season-1/id380314616</a>","last_updated":"2017-06-02T12:03:44.223Z","parsed":{"xt":"urn:btih:1637e92a4c67ce248687eaa76a9b724f23cadbb0","dn":"Scooby-Doo! Mystery Incorporated Complete Season 1 1080P WEB-DL ","tr":["udp://exodus.desync.com:6969","udp://open.demonii.com:1337","udp://tracker.coppersurfer.tk:6969","udp://tracker.leechers-paradise.org:6969","udp://zer0day.ch:1337"],"infoHash":"1637e92a4c67ce248687eaa76a9b724f23cadbb0","infoHashBuffer":{"type":"Buffer","data":[22,55,233,42,76,103,206,36,134,135,234,167,106,155,114,79,35,202,219,176]},"name":"Scooby-Doo! Mystery Incorporated Complete Season 1 1080P WEB-DL ","announce":["udp://exodus.desync.com:6969","udp://open.demonii.com:1337","udp://tracker.coppersurfer.tk:6969","udp://tracker.leechers-paradise.org:6969","udp://zer0day.ch:1337"],"urlList":[]}}